<svg xmlns="http://www.w3.org/2000/svg" version="1.0" preserveAspectRatio="xMidYMid meet" viewBox="0 0 225 225">
 <g fill="#ffffff" data-darkreader-inline-fill="" style="--darkreader-inline-fill: #181a1b;">
  <path d="M0 112.50 l0 -112.50 112.50 0 112.50 0 0 112.50 0 112.50 -112.50 0 -112.50 0 0 -112.50z m106.25 76.20 c0.15 -1 0.20 -1.90 0.10 -2 -0.10 -0.10 -1.05 -0.25 -2.15 -0.35 -1.80 -0.10 -1.95 0 -2.10 1.30 -0.25 2.20 0.20 2.85 2.10 2.85 1.55 0 1.70 -0.15 2.05 -1.80z m8.25 0.10 c0 -1.90 -0.55 -2.25 -2.85 -1.95 -1.50 0.25 -1.65 0.45 -1.65 1.95 0 1.70 0.05 1.70 2.25 1.70 2.20 0 2.25 0 2.25 -1.70z m7.25 -0.55 l0 -2 -2 0.15 c-1.10 0.10 -2 0.20 -2.05 0.25 -0.05 0.05 0.05 0.95 0.20 2 0.20 1.85 0.25 1.90 2.05 1.75 1.75 -0.15 1.80 -0.20 1.80 -2.15z m-23.55 -0.50 c0.45 -2.30 0.10 -2.75 -2 -2.75 -1.45 0 -1.70 0.15 -1.70 1.15 0 0.65 -0.25 1.40 -0.60 1.75 -0.45 0.45 -0.40 0.60 0.15 0.80 0.40 0.10 1.05 0.35 1.45 0.45 1.85 0.65 2.40 0.35 2.70 -1.40z m32.05 0.70 c0.25 -0.30 0.25 -0.65 -0.15 -1.05 -0.35 -0.35 -0.60 -1 -0.60 -1.50 0 -0.65 -0.40 -0.90 -1.35 -0.90 -2.15 0 -2.75 0.65 -2.35 2.30 0.20 0.80 0.45 1.65 0.55 1.85 0.30 0.50 3.20 -0.05 3.90 -0.70z m-39.75 -1.90 c0 -0.55 0.25 -1.15 0.50 -1.30 1.10 -0.65 0.40 -1.65 -1.45 -2.10 -1.80 -0.50 -2 -0.45 -2.50 0.70 -0.85 1.90 -0.65 3.05 0.60 3.30 2.35 0.45 2.85 0.35 2.85 -0.60z m45.85 0.35 c1.40 -0.60 1.45 -0.75 0.95 -2.25 -0.60 -1.85 -0.70 -1.90 -3.05 -1.45 -1.75 0.35 -2.20 0.95 -1.25 1.55 0.30 0.15 0.50 0.85 0.50 1.55 0 1.35 0.70 1.50 2.85 0.60z m-53.05 -3.80 c0.65 -1.60 0.65 -1.65 -0.95 -2.60 -0.90 -0.55 -1.70 -1 -1.85 -1 -0.45 0 -1.65 3.55 -1.30 3.85 0.55 0.60 2.55 1.55 2.95 1.45 0.25 -0.05 0.75 -0.80 1.15 -1.70z m61.70 -0.40 c0 -0.60 -0.75 -2.45 -1.25 -3.10 -0.15 -0.20 -3.20 1.40 -3.45 1.85 -0.15 0.20 0.20 1.05 0.70 1.95 0.95 1.50 1 1.55 2.50 0.80 0.80 -0.45 1.50 -1.10 1.50 -1.50z m-68.45 -3.75 c0.30 -0.65 0.15 -1.05 -0.80 -1.65 -1.65 -1.10 -2.35 -1 -3.45 0.50 -1 1.40 -0.80 1.85 1.30 2.95 1.20 0.65 1.75 0.30 2.95 -1.80z m75.95 0.15 c0 -0.20 -0.45 -0.90 -0.95 -1.60 -0.85 -1.05 -1.15 -1.15 -2.40 -0.75 -1.75 0.65 -1.95 1.70 -0.65 3.40 l1.10 1.35 1.45 -1.05 c0.80 -0.55 1.45 -1.15 1.45 -1.35z m6.45 -4.40 c0.05 -0.30 -0.50 -1.05 -1.15 -1.65 l-1.20 -1.15 -1.55 1.15 c-1.60 1.20 -1.60 1.15 0.35 3.55 0.70 0.80 0.80 0.80 2.15 -0.25 0.75 -0.60 1.40 -1.35 1.40 -1.65z m-89.45 0.75 c0.60 -0.80 1.05 -1.55 0.95 -1.65 -2.90 -1.95 -3 -1.95 -4.35 -0.60 l-1.30 1.25 1.20 1.30 c1.55 1.65 2.20 1.60 3.50 -0.30z m-6.55 -4.50 l1.20 -1.55 -1.30 -1.30 -1.30 -1.30 -1.30 1.20 c-0.70 0.65 -1.25 1.35 -1.25 1.55 0 0.45 2.10 2.85 2.50 2.85 0.15 0.05 0.80 -0.65 1.45 -1.45z m100.80 0.45 c1.55 -1.35 1.55 -1.95 0 -3.40 l-1.30 -1.20 -1.30 1.30 -1.30 1.30 1.20 1.55 c0.65 0.80 1.25 1.50 1.30 1.50 0.10 0.05 0.70 -0.45 1.40 -1.05z m-106.35 -6.05 l1.10 -1.20 -1.05 -1.30 c-1.25 -1.65 -1.30 -1.65 -3.20 -0.10 l-1.45 1.20 1.20 1.30 c1.45 1.55 2.05 1.55 3.40 0.10z m112.60 -0.10 l1.15 -1.25 -1.35 -1.25 c-1.10 -1 -1.55 -1.15 -2.30 -0.75 -1.75 0.95 -2.05 2.15 -0.90 3.40 1.35 1.40 1.95 1.40 3.40 -0.15z m-117.55 -5.95 l1.15 -1.25 -1.25 -1.30 c-1.30 -1.45 -1.25 -1.45 -4.25 0.55 -0.35 0.25 2.10 3.20 2.65 3.20 0.30 0 1.10 -0.55 1.70 -1.20z m122.80 -0.15 l1.20 -1.40 -1.35 -1.10 c-1.70 -1.40 -1.80 -1.40 -3.40 0.20 l-1.35 1.35 1.45 1.15 c1.85 1.45 2 1.45 3.45 -0.20z m-28.75 -3.20 c5.65 -2.55 12.20 -11.80 13.55 -19.15 l0.60 -3.30 -1.60 -2.15 c-2.55 -3.35 -3.70 -6.25 -3.75 -9.60 -0.05 -1.65 -0.25 -3.30 -0.50 -3.65 -0.20 -0.35 -0.45 -1.90 -0.55 -3.40 -0.10 -1.55 -0.55 -3.30 -0.95 -3.95 -0.45 -0.70 -0.80 -1.70 -0.80 -2.25 0 -1.45 -2.05 -5.35 -5.90 -11.25 -4.70 -7.20 -8.40 -13.35 -10.15 -16.90 -2 -4 -2.80 -4.85 -4.50 -4.85 -2.10 0 -3.60 2.45 -3.85 6.25 -0.25 4.15 1.55 9.50 6.15 18.25 1 1.90 1.50 3.35 1.20 3.45 -0.30 0.10 -1.50 -0.55 -2.60 -1.40 -3.15 -2.35 -13.75 -9.65 -15.55 -10.75 -0.85 -0.50 -1.60 -1.10 -1.70 -1.35 -0.10 -0.25 -0.40 -0.45 -0.60 -0.45 -0.25 0 -4.70 -3 -9.85 -6.65 -5.15 -3.65 -9.95 -7 -10.65 -7.45 -0.70 -0.50 -2.25 -1.55 -3.45 -2.40 -1.65 -1.20 -2.50 -1.50 -3.45 -1.25 -2.15 0.55 -4.05 2.20 -4.50 3.95 -0.85 3 -0.35 3.85 4.50 7.30 4.45 3.20 12.45 8.75 14 9.75 6.90 4.45 9.90 6.60 9.90 7.05 0 0.30 -0.30 0.85 -0.65 1.15 -0.55 0.40 -1.85 -0.25 -5.90 -3.10 -2.85 -1.95 -5.75 -4 -6.45 -4.45 -1.80 -1.20 -13.10 -9 -19 -13.10 l-4.95 -3.45 -1.90 0.70 c-2.40 0.95 -4.15 3.45 -4.15 6 0 1.60 0.30 2.10 1.90 3.30 1 0.75 1.95 1.50 2.10 1.65 0.15 0.15 3.50 2.45 7.50 5.05 10 6.60 22.20 15.40 22.35 16.10 0.10 0.35 -0.05 0.90 -0.30 1.25 -0.55 0.85 -0.65 0.80 -16.30 -10.35 -11.10 -7.90 -12.15 -8.55 -13.70 -8.25 -0.90 0.15 -2.05 0.50 -2.55 0.80 -1.50 0.95 -2.60 5.30 -1.60 6.65 0.30 0.45 7.30 5.55 12.35 9 8.60 5.95 17.25 11.75 17.40 11.75 0.10 0 0.85 -0.95 1.60 -2.10 0.75 -1.20 3.35 -4.10 5.70 -6.45 2.40 -2.35 4.90 -5.05 5.55 -6 2.40 -3.50 3.95 -4 5.20 -1.55 0.85 1.65 0 4.45 -2.20 7.20 -0.85 1 -1.50 2 -1.50 2.25 0 0.20 -0.80 1.40 -1.75 2.60 -0.95 1.20 -1.65 2.30 -1.55 2.40 0.10 0.15 1.15 -0.25 2.35 -0.85 1.15 -0.60 3.55 -1.65 5.30 -2.30 1.75 -0.65 3.55 -1.40 4 -1.65 0.50 -0.25 1.85 -0.95 3.05 -1.55 1.20 -0.60 2.30 -1 2.40 -0.85 0.25 0.25 7.40 -2.55 12.05 -4.75 l2.20 -1.05 1.35 1.05 c1 0.70 1.30 1.40 1.25 2.40 -0.15 1.90 -1.45 2.90 -5.40 4.15 -1.80 0.60 -4.65 1.70 -6.40 2.50 -1.70 0.75 -3.95 1.70 -5.05 2.10 -1.80 0.65 -2.75 1.65 -2.20 2.25 0.15 0.15 3.40 -1.05 7.20 -2.60 3.85 -1.55 7.95 -3.20 9.20 -3.70 1.25 -0.45 3.05 -1.20 4 -1.60 3.10 -1.45 3.75 -1.50 5.15 -0.35 1.75 1.30 1.75 3.05 0.05 4.40 -0.75 0.60 -1.55 1.05 -1.75 1.05 -0.25 0 -1.40 0.45 -2.60 1 -3.95 1.80 -16.40 7 -16.85 7 -0.75 0 -1.15 1.10 -0.55 1.50 0.35 0.20 4.65 -1.40 9.85 -3.65 8.80 -3.80 9.25 -3.90 10.40 -3.15 0.70 0.40 1.35 1.25 1.55 1.80 0.65 2.05 -0.90 3.25 -7.35 5.75 -9.85 3.80 -13.55 5.50 -13.80 6.15 -0.35 1.15 1.70 0.60 7.40 -1.95 3.15 -1.40 6 -2.65 6.30 -2.75 0.30 -0.15 1.15 0 1.85 0.25 1.10 0.45 1.35 0.85 1.35 2.20 0 1.70 -0.75 2.85 -1.85 2.85 -0.35 0 -1.80 0.55 -3.25 1.20 -1.45 0.65 -7.80 3.50 -14.15 6.30 -6.30 2.85 -11.55 5.20 -11.65 5.25 -0.10 0.10 1.35 0.95 3.25 1.95 3.20 1.70 5.35 2.35 13.05 3.90 1.70 0.35 3.10 0.75 3.10 0.95 0 0.30 2.90 1.70 5.25 2.50 2 0.70 5.55 0.40 7.75 -0.60z m-98 -4.15 c0 -0.60 -0.30 -1.55 -0.70 -2.10 -0.70 -0.90 -0.80 -0.90 -2.15 -0.10 -1.80 1.05 -1.95 1.90 -0.65 3.55 1 1.25 1.10 1.30 2.30 0.55 0.65 -0.45 1.20 -1.30 1.20 -1.90z m130.75 0.90 l0.95 -1.80 -1.20 -0.95 c-1.75 -1.30 -2.45 -1.20 -3.25 0.70 -0.65 1.50 -0.60 1.65 0.65 2.70 0.75 0.60 1.45 1.10 1.60 1.15 0.15 0 0.70 -0.80 1.25 -1.80z m-135.50 -6.30 c1.45 -0.65 1.60 -1.70 0.50 -3.25 -0.70 -1 -0.95 -1.05 -2.15 -0.55 -2.10 0.90 -2.25 1.20 -1.40 2.85 0.90 1.70 1.20 1.80 3.05 0.95z m139.50 -0.90 c1.05 -2 1 -2.20 -0.80 -2.85 -1.85 -0.70 -2.35 -0.50 -3 1.25 -0.45 1.10 -0.30 1.45 0.65 2.20 1.60 1.25 2.25 1.10 3.15 -0.60z m-141.60 -8.25 c-0.15 -1.75 -1.15 -2.95 -1.85 -2.25 -0.25 0.25 -0.90 0.50 -1.40 0.50 -1 0 -1.15 1.20 -0.40 3.20 0.45 1.20 0.50 1.25 2.10 0.55 1.35 -0.55 1.65 -0.95 1.55 -2z m144.65 1 c0.80 -2 0.60 -2.75 -0.80 -2.75 -0.50 0 -1.10 -0.25 -1.30 -0.55 -0.20 -0.40 -0.65 -0.20 -1.25 0.60 -1.15 1.50 -1.20 2.90 -0.05 3.25 0.45 0.15 1.20 0.45 1.60 0.70 0.40 0.25 0.80 0.45 0.90 0.45 0.10 0.05 0.50 -0.75 0.90 -1.70z m-149.05 -6.25 c0.15 -0.25 0.75 -0.50 1.30 -0.50 0.70 0 0.95 -0.35 0.95 -1.35 0 -2.20 -0.55 -2.65 -2.60 -2.30 -1.75 0.25 -1.85 0.35 -1.60 1.85 0.40 2.30 0.60 2.80 1.15 2.80 0.25 0 0.65 -0.20 0.80 -0.50z m151.45 -2.05 c0.30 -1.80 0.30 -1.85 -1.50 -2.15 -2.15 -0.45 -2.15 -0.40 -2.50 1.75 -0.25 1.60 -0.20 1.75 1.40 2.25 2 0.60 2.20 0.45 2.60 -1.85z m-94.85 -0.05 c1.05 -2.20 2.65 -6.55 2.65 -7.10 -0.05 -0.60 -4.65 -3.90 -14.40 -10.40 l-5.80 -3.85 -1.75 0.75 c-2.50 1.05 -3.40 2.10 -3.75 4.55 l-0.30 2.10 4.85 3.30 c2.70 1.80 7.50 5.15 10.65 7.50 3.15 2.30 6.10 4.20 6.55 4.20 0.45 0.05 1 -0.45 1.30 -1.05z m-55.85 -7.85 c0 -2.40 -0.30 -2.65 -2.70 -2 -1.60 0.45 -1.85 0.70 -1.60 1.60 0.15 0.60 0.30 1.40 0.30 1.75 0 0.35 0.75 0.60 2 0.60 2 0 2 0 2 -1.95z m152.30 0.70 c0.45 -1.85 0 -2.55 -1.85 -2.95 -1.85 -0.35 -2.45 0.20 -2.45 2.25 0 1.65 0.35 1.95 2.30 1.95 1.35 0 1.75 -0.25 2 -1.25z m-152.80 -8.40 c0 -2 -0.75 -2.85 -2.60 -2.85 -1.35 0 -1.40 0.10 -1.40 2.25 l0 2.25 2 0 c1.95 0 2 -0.05 2 -1.65z m153 -0.60 c0 -2.20 0 -2.25 -1.70 -2.25 -1.75 0 -2.30 0.60 -2.30 2.70 0 1.50 0.35 1.80 2.35 1.80 1.65 0 1.65 -0.05 1.65 -2.25z m-153 -7.25 c0 -1.70 -0.20 -2.05 -1.25 -2.30 -2.05 -0.50 -2.75 0.05 -2.75 2.30 l0 2 2 0 c2 0 2 0 2 -2z m153 -0.50 c0 -2 0 -2 -1.90 -2 -1.05 0 -2.05 0.10 -2.15 0.25 -0.15 0.10 -0.15 1 -0.05 2 0.20 1.65 0.30 1.75 2.15 1.75 1.95 0 1.95 0 1.95 -2z m-152 -7 c0 -0.80 0 -1.65 0 -1.85 0.05 -0.50 -2.80 -1.10 -3.40 -0.70 -0.25 0.15 -0.55 0.95 -0.70 1.70 -0.30 1.55 0.65 2.25 3 2.30 0.90 0.05 1.10 -0.20 1.10 -1.45z m150.05 1 c0.75 0 0.95 -0.35 0.95 -1.95 0 -1.10 -0.15 -2.10 -0.40 -2.25 -0.20 -0.10 -1.20 0.05 -2.25 0.35 -1.75 0.55 -1.85 0.70 -1.55 2.10 0.45 2.05 0.70 2.35 1.55 2.05 0.40 -0.15 1.15 -0.30 1.70 -0.30z m-148.25 -9.10 c0.30 -1.70 0.25 -1.80 -1.55 -2.10 -1 -0.20 -1.90 -0.30 -2 -0.20 -0.10 0.10 -0.30 0.95 -0.50 1.90 -0.30 1.70 -0.25 1.80 1.35 2.30 2 0.60 2.35 0.35 2.70 -1.90z m147.30 -0.45 c-0.25 -2.30 -0.60 -2.55 -2.50 -1.85 -1.70 0.65 -1.85 1.10 -1.15 3.05 0.45 1.10 0.70 1.20 2.15 0.90 1.55 -0.35 1.65 -0.50 1.50 -2.10z m-144.80 -6.25 c0.40 -1 0.70 -1.85 0.60 -1.95 -0.10 -0.05 -0.85 -0.50 -1.75 -0.95 -1.60 -0.80 -1.60 -0.80 -2.40 0.65 -1.10 2.15 -0.95 2.80 0.90 3.40 0.85 0.25 1.65 0.55 1.75 0.60 0.10 0 0.50 -0.75 0.90 -1.75z m141.05 0.70 c1.90 -0.70 1.95 -0.90 0.90 -2.90 -0.90 -1.75 -0.85 -1.75 -2.80 -0.70 -1.10 0.55 -1.45 1 -1.20 1.60 0.20 0.45 0.50 1.25 0.60 1.75 0.30 1 0.35 1 2.50 0.25z m-137.85 -7.35 c0.85 -1.60 0.55 -2.75 -0.85 -3.40 -1.50 -0.70 -2.40 -0.25 -2.95 1.45 -0.25 0.75 0 1.30 0.85 1.95 1.55 1.20 2.30 1.20 2.95 0z m135.25 -0.25 c0.80 -0.60 0.85 -0.85 0.30 -2.25 -0.75 -1.75 -0.95 -1.80 -2.80 -0.95 -0.75 0.35 -1.25 0.95 -1.25 1.65 0 2.05 1.95 2.90 3.75 1.55z m-131.50 -6.30 c0.15 -0.55 0.55 -1 0.80 -1 0.95 0 0.40 -1.35 -1 -2.40 l-1.50 -1.10 -1 1.45 c-1.35 1.90 -1.30 2.35 0.35 3.25 1.80 1 2 1 2.35 -0.20z m127.30 0 c1.25 -0.70 1.20 -1.55 -0.10 -3.20 -0.95 -1.20 -1.15 -1.25 -1.90 -0.65 -0.45 0.40 -1.20 0.85 -1.70 1 -0.85 0.35 -0.85 0.45 0.15 1.85 1.15 1.60 1.95 1.80 3.55 1z m-122.50 -6.60 c1.20 -1.50 1.15 -1.95 -0.35 -3.10 -1.30 -0.90 -1.30 -0.90 -2.60 0.35 l-1.30 1.30 1.20 1.30 c1.45 1.55 1.85 1.55 3.05 0.15z m117.90 -0.10 c1.15 -1.20 1.15 -1.25 0.25 -2.50 -1.15 -1.55 -2.05 -1.60 -3.50 -0.25 l-1.15 1.05 1.05 1.45 c1.30 1.75 1.90 1.80 3.35 0.25z m-112.35 -5.65 c1.20 -1.10 1.15 -1.75 -0.35 -3.15 l-1.30 -1.20 -1.30 1.35 -1.35 1.30 1.20 1.30 c1.40 1.45 1.85 1.55 3.10 0.40z m106.90 -0.40 l1.20 -1.30 -1.35 -1.30 -1.30 -1.35 -1.30 1.20 c-1.55 1.45 -1.55 1.85 -0.15 3.05 1.35 1.20 1.50 1.20 2.90 -0.30z m-101.25 -4.55 c1.50 -1 1.55 -1.55 0.20 -3.15 -0.90 -1.10 -1.10 -1.15 -2.30 -0.50 -1.70 0.90 -1.90 1.65 -0.80 3.15 1.05 1.50 1.30 1.55 2.90 0.50z m95.30 -0.30 c1.15 -1.40 1.15 -1.85 0.10 -3 -1.10 -1.25 -2.25 -1.10 -3.35 0.40 -0.90 1.25 -0.90 1.30 0.25 2.50 1.40 1.50 1.80 1.50 3 0.10z m-88.80 -4.20 c1.25 -0.80 1.70 -2.20 0.75 -2.20 -0.25 0 -0.50 -0.35 -0.50 -0.75 0 -1.20 -1.35 -1.45 -2.75 -0.55 -1.50 0.95 -1.55 1.45 -0.35 3.05 1 1.45 1.25 1.50 2.85 0.45z m82.25 -0.40 c0 -0.40 0.25 -0.80 0.60 -0.90 0.90 -0.30 0.05 -1.85 -1.40 -2.50 -1.15 -0.55 -1.40 -0.45 -2.25 0.60 -1.20 1.65 -1.20 2.25 0.20 2.90 1.60 0.75 2.85 0.70 2.85 -0.10z m-75.05 -4.05 c0.55 -0.55 0.55 -0.90 0 -2.20 -0.80 -1.80 -0.95 -1.80 -2.95 -0.80 -1.30 0.70 -1.40 0.90 -0.95 2.10 0.25 0.70 0.60 1.50 0.75 1.75 0.35 0.55 2.20 0.05 3.15 -0.85z m68.70 -0.50 l0.85 -1.75 -1.75 -0.85 c-1.65 -0.80 -1.80 -0.80 -2.45 0.15 -1.40 1.85 -1.30 2.70 0.35 3.45 2.20 0.90 2.05 0.95 3 -1z m-61 -2.75 c0.55 -0.45 -0.65 -3.50 -1.40 -3.50 -0.40 0 -1.30 0.25 -2 0.50 -1.15 0.45 -1.30 0.70 -1 1.90 0.55 2.20 1.15 2.65 2.65 2 0.75 -0.35 1.50 -0.75 1.75 -0.90z m53.60 -0.35 c0.85 -2 0.70 -2.25 -1.55 -3.05 -1.55 -0.50 -1.60 -0.45 -2.20 1.45 -0.35 1.10 -0.55 2 -0.45 2.10 0.10 0.10 0.90 0.40 1.70 0.70 0.85 0.30 1.55 0.55 1.60 0.60 0.10 0.05 0.50 -0.80 0.90 -1.80z m-47.05 -1.45 c0.55 -0.20 0.80 -0.95 0.80 -2.25 0 -1.55 -0.20 -1.95 -0.95 -1.95 -0.85 0 -4.05 0.95 -4.05 1.20 0 0.10 0.35 0.85 0.80 1.70 0.75 1.55 1.75 1.95 3.40 1.30z m39.70 -1.45 c0.15 -0.95 -0.10 -1.65 -0.70 -2.10 -1.55 -1.15 -2.60 -0.75 -3.20 1.15 -0.70 2.15 -0.15 2.80 2.25 2.60 1.25 -0.15 1.55 -0.40 1.65 -1.65z m-31.05 -0.45 c0.05 -0.05 0 -0.95 -0.20 -2 -0.20 -1.35 -0.50 -1.80 -1 -1.60 -0.40 0.20 -1.40 0.30 -2.20 0.30 -1.35 0 -1.45 0.10 -1.15 1.40 0.60 2.70 0.60 2.75 2.60 2.35 1 -0.20 1.90 -0.40 1.95 -0.45z m23.40 -1.10 c0.15 -1 0.25 -1.85 0.15 -1.95 -0.10 -0.05 -0.95 -0.25 -1.95 -0.45 -1.60 -0.30 -1.85 -0.20 -2.15 0.80 -0.55 2.05 -0.35 2.85 0.85 3.05 2.50 0.50 2.75 0.40 3.10 -1.45z m-15.55 0.35 c0.15 -0.25 0.15 -1.15 0 -2 -0.30 -1.40 -0.50 -1.55 -2.25 -1.55 -1.95 0 -1.95 0 -1.95 2 0 2 0 2 1.95 2 1.10 0 2.10 -0.20 2.25 -0.45z m7.70 -1.65 l0.15 -1.90 -2.25 0 c-2.25 0 -2.30 0 -2.30 1.65 0 2.15 0.30 2.45 2.50 2.25 1.65 -0.15 1.75 -0.25 1.90 -2z"/>
 </g>
 <g fill="#27abe2" data-darkreader-inline-fill="" style="--darkreader-inline-fill: #1782af;">
  <path d="M102.20 189.80 c-0.15 -0.40 -0.20 -1.35 -0.10 -2.15 0.15 -1.30 0.30 -1.40 2.10 -1.30 1.10 0.10 2.05 0.25 2.15 0.35 0.10 0.10 0.05 1 -0.10 2 -0.35 1.65 -0.50 1.80 -2.05 1.80 -1.05 0 -1.85 -0.30 -2 -0.70z"/>
  <path d="M110 188.80 c0 -1.50 0.15 -1.70 1.65 -1.95 2.30 -0.30 2.85 0.05 2.85 1.95 0 1.70 -0.05 1.70 -2.25 1.70 -2.20 0 -2.25 0 -2.25 -1.70z"/>
  <path d="M117.90 188.65 c-0.15 -1.05 -0.25 -1.95 -0.20 -2 0.05 -0.05 0.95 -0.15 2.05 -0.25 l2 -0.15 0 2 c0 1.95 -0.05 2 -1.80 2.15 -1.80 0.15 -1.85 0.10 -2.05 -1.75z"/>
  <path d="M95.50 189.15 c-0.40 -0.10 -1.05 -0.35 -1.45 -0.45 -0.55 -0.20 -0.60 -0.35 -0.15 -0.80 0.35 -0.35 0.60 -1.10 0.60 -1.75 0 -1 0.25 -1.15 1.70 -1.15 2.10 0 2.45 0.45 2 2.75 -0.30 1.75 -0.85 2.05 -2.70 1.40z"/>
  <path d="M126.35 189.15 c-0.10 -0.20 -0.35 -1.05 -0.55 -1.85 -0.40 -1.65 0.20 -2.30 2.35 -2.30 0.95 0 1.35 0.25 1.35 0.90 0 0.50 0.25 1.15 0.60 1.50 0.40 0.40 0.40 0.75 0.15 1.05 -0.70 0.65 -3.60 1.20 -3.90 0.70z"/>
  <path d="M87.65 187.15 c-1.25 -0.25 -1.45 -1.40 -0.60 -3.30 0.50 -1.15 0.70 -1.20 2.50 -0.70 1.85 0.45 2.55 1.45 1.45 2.10 -0.25 0.15 -0.50 0.75 -0.50 1.30 0 0.95 -0.50 1.05 -2.85 0.60z"/>
  <path d="M133.50 186.30 c0 -0.70 -0.20 -1.40 -0.50 -1.55 -0.95 -0.60 -0.50 -1.20 1.25 -1.55 2.35 -0.45 2.45 -0.40 3.05 1.45 0.50 1.50 0.45 1.65 -0.95 2.25 -2.15 0.90 -2.85 0.75 -2.85 -0.60z"/>
  <path d="M80.60 184.25 c-0.60 -0.30 -1.25 -0.75 -1.40 -0.90 -0.35 -0.30 0.85 -3.85 1.30 -3.85 0.15 0 0.95 0.45 1.85 1 1.60 0.95 1.60 1 0.95 2.60 -0.80 1.90 -1.15 2 -2.70 1.15z"/>
  <path d="M141 183.40 c-0.50 -0.90 -0.85 -1.75 -0.70 -1.95 0.25 -0.45 3.30 -2.05 3.45 -1.85 0.50 0.65 1.25 2.50 1.25 3.10 0 0.40 -0.70 1.05 -1.50 1.50 -1.50 0.75 -1.55 0.70 -2.50 -0.80z"/>
  <path d="M73.60 180.75 c-2.10 -1.10 -2.30 -1.55 -1.30 -2.95 1.10 -1.50 1.80 -1.60 3.45 -0.50 1.25 0.85 1.20 1.40 -0.35 3.25 -0.55 0.65 -0.85 0.70 -1.80 0.20z"/>
  <path d="M148.50 180.15 c-1.30 -1.70 -1.10 -2.75 0.65 -3.40 1.25 -0.40 1.55 -0.30 2.40 0.75 1.20 1.65 1.20 1.75 -0.50 2.95 l-1.45 1.05 -1.10 -1.35z"/>
  <path d="M155.40 176.60 c-1.95 -2.40 -1.95 -2.35 -0.35 -3.55 l1.55 -1.15 1.20 1.15 c1.50 1.45 1.50 1.95 -0.25 3.30 -1.35 1.05 -1.45 1.05 -2.15 0.25z"/>
  <path d="M66 175.75 l-1.20 -1.30 1.30 -1.25 c1.35 -1.35 1.45 -1.35 4.35 0.60 0.35 0.30 -2.05 3.20 -2.65 3.20 -0.35 0 -1.15 -0.55 -1.80 -1.25z"/>
  <path d="M60.15 171.20 c-1.45 -1.55 -1.45 -1.75 0.10 -3.20 l1.30 -1.20 1.30 1.30 1.30 1.30 -1.20 1.55 c-0.65 0.80 -1.30 1.50 -1.45 1.45 -0.15 0 -0.75 -0.55 -1.35 -1.20z"/>
  <path d="M161.05 170.95 l-1.20 -1.55 1.30 -1.30 1.30 -1.30 1.30 1.20 c0.70 0.65 1.25 1.45 1.25 1.75 0 0.50 -2.25 2.80 -2.65 2.70 -0.05 0 -0.65 -0.70 -1.30 -1.50z"/>
  <path d="M54 165.25 l-1.20 -1.30 1.45 -1.20 c1.90 -1.55 1.95 -1.55 3.20 0.10 l1.05 1.30 -1.10 1.20 c-1.35 1.45 -1.95 1.45 -3.40 -0.10z"/>
  <path d="M166.60 165.40 c-1.15 -1.25 -0.85 -2.45 0.90 -3.40 0.75 -0.40 1.20 -0.25 2.30 0.75 l1.35 1.25 -1.15 1.25 c-1.45 1.55 -2.05 1.55 -3.40 0.15z"/>
  <path d="M49.05 158.95 c-0.65 -0.85 -1.05 -1.60 -0.95 -1.65 3 -2 2.95 -2 4.25 -0.55 l1.25 1.30 -1.15 1.25 c-1.45 1.55 -2.05 1.50 -3.40 -0.35z"/>
  <path d="M171.80 159.35 l-1.45 -1.15 1.35 -1.35 c1.60 -1.60 1.70 -1.60 3.40 -0.20 l1.35 1.10 -1.20 1.40 c-1.45 1.65 -1.60 1.65 -3.45 0.20z"/>
  <path d="M138.75 156.55 c-2.35 -0.80 -5.25 -2.20 -5.25 -2.50 0 -0.20 -1.40 -0.60 -3.10 -0.95 -7.70 -1.55 -9.85 -2.20 -13.05 -3.90 -1.90 -1 -3.35 -1.85 -3.25 -1.95 0.10 -0.05 5.35 -2.40 11.65 -5.25 6.35 -2.80 12.70 -5.65 14.15 -6.30 1.45 -0.65 2.90 -1.20 3.25 -1.20 1.10 0 1.85 -1.15 1.85 -2.85 0 -1.35 -0.25 -1.75 -1.35 -2.20 -0.70 -0.25 -1.55 -0.40 -1.85 -0.25 -0.30 0.10 -3.15 1.35 -6.30 2.75 -5.70 2.55 -7.75 3.10 -7.40 1.95 0.25 -0.65 3.95 -2.35 13.80 -6.15 6.45 -2.50 8 -3.70 7.35 -5.75 -0.20 -0.55 -0.85 -1.40 -1.55 -1.80 -1.15 -0.75 -1.60 -0.65 -10.40 3.15 -5.20 2.25 -9.50 3.85 -9.85 3.65 -0.60 -0.40 -0.20 -1.50 0.55 -1.50 0.45 0 12.90 -5.20 16.85 -7 1.20 -0.55 2.35 -1 2.60 -1 0.20 0 1 -0.45 1.75 -1.05 1.70 -1.35 1.70 -3.10 -0.05 -4.40 -1.40 -1.15 -2.05 -1.10 -5.15 0.35 -0.95 0.40 -2.75 1.15 -4 1.60 -1.25 0.50 -5.35 2.15 -9.20 3.70 -3.80 1.55 -7.05 2.75 -7.20 2.60 -0.55 -0.60 0.40 -1.60 2.20 -2.25 1.10 -0.40 3.35 -1.35 5.05 -2.10 1.75 -0.80 4.60 -1.90 6.40 -2.50 3.95 -1.25 5.25 -2.25 5.40 -4.15 0.05 -1 -0.25 -1.70 -1.25 -2.40 l-1.35 -1.05 -2.20 1.05 c-4.65 2.20 -11.80 5 -12.05 4.75 -0.10 -0.15 -1.20 0.25 -2.40 0.85 -1.20 0.60 -2.55 1.30 -3.05 1.55 -0.45 0.25 -2.25 1 -4 1.65 -1.75 0.65 -4.15 1.70 -5.30 2.30 -1.20 0.60 -2.25 1 -2.35 0.85 -0.10 -0.10 0.60 -1.20 1.55 -2.40 0.95 -1.20 1.75 -2.40 1.75 -2.60 0 -0.25 0.65 -1.25 1.50 -2.25 2.20 -2.75 3.05 -5.55 2.20 -7.20 -1.25 -2.45 -2.80 -1.95 -5.20 1.55 -0.65 0.95 -3.15 3.65 -5.55 6 -2.35 2.35 -4.95 5.25 -5.70 6.45 -0.75 1.15 -1.50 2.10 -1.60 2.10 -0.15 0 -8.80 -5.80 -17.40 -11.75 -5.05 -3.45 -12.05 -8.55 -12.35 -9 -1 -1.35 0.10 -5.70 1.60 -6.65 0.50 -0.30 1.65 -0.65 2.55 -0.80 1.55 -0.30 2.60 0.35 13.70 8.25 15.65 11.15 15.75 11.20 16.30 10.35 0.25 -0.35 0.40 -0.90 0.30 -1.25 -0.15 -0.70 -12.35 -9.50 -22.35 -16.10 -4 -2.60 -7.35 -4.90 -7.50 -5.05 -0.15 -0.15 -1.10 -0.90 -2.10 -1.65 -1.60 -1.20 -1.90 -1.70 -1.90 -3.30 0 -2.55 1.75 -5.05 4.15 -6 l1.90 -0.70 4.95 3.45 c5.90 4.10 17.20 11.90 19 13.10 0.70 0.45 3.60 2.50 6.45 4.45 4.05 2.85 5.35 3.50 5.90 3.10 1.40 -1.20 0.85 -1.65 -9.25 -8.20 -1.55 -1 -9.55 -6.55 -14 -9.75 -4.85 -3.45 -5.35 -4.30 -4.50 -7.30 0.45 -1.75 2.35 -3.40 4.50 -3.95 0.95 -0.25 1.80 0.05 3.45 1.25 1.20 0.85 2.75 1.90 3.45 2.40 0.70 0.45 5.50 3.80 10.65 7.45 5.15 3.65 9.60 6.65 9.85 6.65 0.20 0 0.50 0.20 0.60 0.45 0.10 0.25 0.85 0.85 1.70 1.35 1.80 1.10 12.40 8.40 15.55 10.75 1.10 0.85 2.30 1.50 2.60 1.40 0.30 -0.10 -0.20 -1.55 -1.20 -3.45 -4.60 -8.75 -6.40 -14.10 -6.15 -18.25 0.25 -3.80 1.75 -6.25 3.85 -6.25 1.70 0 2.50 0.85 4.50 4.85 1.75 3.55 5.45 9.70 10.15 16.90 3.85 5.90 5.90 9.80 5.90 11.25 0 0.55 0.35 1.55 0.80 2.25 0.40 0.65 0.85 2.40 0.95 3.95 0.10 1.50 0.35 3.05 0.55 3.40 0.25 0.35 0.45 2 0.50 3.65 0.05 3.35 1.20 6.25 3.75 9.60 l1.60 2.15 -0.60 3.30 c-1.35 7.35 -7.90 16.60 -13.55 19.15 -2.20 1 -5.75 1.30 -7.75 0.60z"/>
  <path d="M45 153.15 c-1.30 -1.65 -1.15 -2.50 0.65 -3.55 1.35 -0.80 1.45 -0.80 2.15 0.10 1.05 1.50 0.85 3.10 -0.50 4 -1.20 0.75 -1.30 0.70 -2.30 -0.55z"/>
  <path d="M176.40 153.35 c-1.25 -1.05 -1.30 -1.20 -0.65 -2.70 0.80 -1.90 1.50 -2 3.25 -0.70 l1.20 0.95 -0.95 1.80 c-0.55 1 -1.10 1.80 -1.25 1.80 -0.15 -0.05 -0.85 -0.55 -1.60 -1.15z"/>
  <path d="M40.70 145.45 c-0.85 -1.65 -0.70 -1.95 1.40 -2.85 1.20 -0.50 1.45 -0.45 2.15 0.55 1.10 1.55 0.95 2.60 -0.50 3.25 -1.85 0.85 -2.15 0.75 -3.05 -0.95z"/>
  <path d="M180.10 146.10 c-0.95 -0.75 -1.10 -1.10 -0.65 -2.20 0.65 -1.75 1.15 -1.95 3 -1.25 1.80 0.65 1.85 0.85 0.80 2.85 -0.90 1.70 -1.55 1.85 -3.15 0.60z"/>
  <path d="M38 138.70 c-0.75 -2 -0.60 -3.20 0.40 -3.20 0.50 0 1.15 -0.25 1.40 -0.50 0.70 -0.70 1.70 0.50 1.85 2.25 0.10 1.05 -0.20 1.45 -1.55 2 -1.60 0.70 -1.65 0.65 -2.10 -0.55z"/>
  <path d="M184.50 139.50 c-0.40 -0.25 -1.15 -0.55 -1.60 -0.70 -1.15 -0.35 -1.10 -1.75 0.05 -3.25 0.60 -0.80 1.05 -1 1.25 -0.60 0.20 0.30 0.80 0.55 1.30 0.55 1.40 0 1.60 0.75 0.80 2.75 -0.40 0.95 -0.80 1.75 -0.90 1.70 -0.10 0 -0.50 -0.20 -0.90 -0.45z"/>
  <path d="M35.80 131.90 c-0.15 -0.35 -0.35 -1.35 -0.50 -2.20 -0.25 -1.50 -0.15 -1.60 1.60 -1.85 2.05 -0.35 2.60 0.10 2.60 2.30 0 1 -0.25 1.35 -0.95 1.35 -0.55 0 -1.15 0.25 -1.30 0.50 -0.45 0.70 -1.25 0.65 -1.45 -0.10z"/>
  <path d="M186.10 131.80 c-1.60 -0.50 -1.65 -0.65 -1.40 -2.25 0.35 -2.15 0.35 -2.20 2.50 -1.75 1.80 0.30 1.80 0.35 1.50 2.15 -0.40 2.30 -0.60 2.45 -2.60 1.85z"/>
  <path d="M86 126.75 c-3.15 -2.35 -7.95 -5.70 -10.65 -7.50 l-4.85 -3.30 0.30 -2.10 c0.35 -2.45 1.25 -3.50 3.75 -4.55 l1.75 -0.75 5.80 3.85 c9.75 6.50 14.35 9.80 14.40 10.40 0 0.55 -1.60 4.90 -2.65 7.10 -0.30 0.60 -0.85 1.10 -1.30 1.05 -0.45 0 -3.40 -1.90 -6.55 -4.20z"/>
  <path d="M34 123.40 c0 -0.35 -0.15 -1.15 -0.30 -1.75 -0.25 -0.90 0 -1.15 1.60 -1.60 2.40 -0.65 2.70 -0.40 2.70 2 0 1.95 0 1.95 -2 1.95 -1.25 0 -2 -0.25 -2 -0.60z"/>
  <path d="M186.35 123.65 c-0.50 -0.45 -0.40 -2.75 0.05 -3.55 0.55 -0.80 3.60 -0.25 3.95 0.70 0.15 0.40 0.10 1.25 -0.05 1.95 -0.25 1 -0.65 1.25 -2 1.25 -0.90 0 -1.80 -0.15 -1.95 -0.35z"/>
  <path d="M33.50 113.75 c0 -2.15 0.05 -2.25 1.40 -2.25 1.85 0 2.60 0.85 2.60 2.85 0 1.60 -0.05 1.65 -2 1.65 l-2 0 0 -2.25z"/>
  <path d="M186.85 115.65 c-0.45 -0.40 -0.45 -2.30 -0.05 -3.35 0.20 -0.50 0.90 -0.80 2 -0.80 1.70 0 1.70 0.05 1.70 2.25 0 2.20 0 2.25 -1.65 2.25 -0.95 0 -1.85 -0.15 -2 -0.35z"/>
  <path d="M33.50 106.50 c0 -2.25 0.70 -2.80 2.75 -2.30 1.05 0.25 1.25 0.60 1.25 2.30 0 2 0 2 -2 2 l-2 0 0 -2z"/>
  <path d="M186.40 106.25 c-0.10 -1 -0.10 -1.90 0.05 -2 0.10 -0.15 1.10 -0.25 2.15 -0.25 1.90 0 1.90 0 1.90 2 0 2 0 2 -1.95 2 -1.85 0 -1.95 -0.10 -2.15 -1.75z"/>
  <path d="M35.20 100 c-0.85 -0.35 -1 -0.70 -0.80 -1.85 0.15 -0.75 0.45 -1.55 0.70 -1.70 0.60 -0.40 3.45 0.20 3.40 0.70 0 0.20 0 1.05 0 1.85 0 1.25 -0.20 1.50 -1.10 1.45 -0.65 0 -1.65 -0.20 -2.20 -0.45z"/>
  <path d="M185.85 100.15 c-0.10 -0.20 -0.40 -1.05 -0.55 -1.90 -0.30 -1.40 -0.20 -1.55 1.55 -2.10 1.05 -0.30 2.05 -0.45 2.25 -0.35 0.25 0.15 0.40 1.15 0.40 2.25 0 1.60 -0.20 1.95 -0.95 1.95 -0.55 0 -1.30 0.15 -1.70 0.30 -0.40 0.15 -0.85 0.10 -1 -0.15z"/>
  <path d="M37.60 92.80 c-1.60 -0.50 -1.65 -0.60 -1.35 -2.30 0.20 -0.95 0.40 -1.80 0.50 -1.90 0.10 -0.10 1 0 2 0.20 1.80 0.30 1.85 0.40 1.55 2.10 -0.35 2.25 -0.70 2.50 -2.70 1.90z"/>
  <path d="M183.95 91.65 c-0.70 -1.95 -0.55 -2.40 1.15 -3.05 1.90 -0.70 2.25 -0.45 2.50 1.85 0.15 1.60 0.05 1.75 -1.50 2.10 -1.45 0.30 -1.70 0.20 -2.15 -0.90z"/>
  <path d="M40.15 85.35 c-1.85 -0.60 -2 -1.25 -0.90 -3.40 0.80 -1.45 0.80 -1.45 2.40 -0.65 0.90 0.45 1.65 0.90 1.75 0.95 0.20 0.15 -1.30 3.80 -1.50 3.70 -0.10 -0.05 -0.90 -0.35 -1.75 -0.60z"/>
  <path d="M181.35 84.65 c-0.10 -0.50 -0.40 -1.30 -0.60 -1.75 -0.25 -0.60 0.10 -1.05 1.20 -1.60 1.95 -1.05 1.90 -1.05 2.80 0.70 1.05 2 1 2.20 -0.90 2.90 -2.15 0.75 -2.20 0.75 -2.50 -0.25z"/>
  <path d="M43.05 77.55 c-0.85 -0.65 -1.10 -1.20 -0.85 -1.95 0.55 -1.70 1.45 -2.15 2.95 -1.45 1.40 0.65 1.70 1.80 0.85 3.40 -0.65 1.20 -1.40 1.20 -2.95 0z"/>
  <path d="M178.10 77.40 c-1.05 -1.05 -0.70 -2.70 0.65 -3.30 1.85 -0.85 2.05 -0.80 2.80 0.95 0.55 1.40 0.50 1.65 -0.30 2.25 -1.15 0.85 -2.35 0.90 -3.15 0.10z"/>
  <path d="M47.40 71.20 c-1.65 -0.90 -1.70 -1.35 -0.35 -3.25 l1 -1.45 1.50 1.10 c1.40 1.05 1.95 2.40 1 2.40 -0.25 0 -0.65 0.45 -0.80 1 -0.35 1.20 -0.55 1.20 -2.35 0.20z"/>
  <path d="M173.50 70 c-1 -1.40 -1 -1.50 -0.15 -1.85 0.50 -0.15 1.25 -0.60 1.70 -1 0.75 -0.60 0.95 -0.55 1.90 0.65 1.30 1.65 1.35 2.50 0.10 3.20 -1.60 0.80 -2.40 0.60 -3.55 -1z"/>
  <path d="M51.50 64.25 l-1.20 -1.30 1.30 -1.30 c1.30 -1.25 1.30 -1.25 2.60 -0.35 1.50 1.15 1.55 1.60 0.35 3.10 -1.20 1.40 -1.60 1.40 -3.05 -0.15z"/>
  <path d="M169.10 64.05 l-1.05 -1.45 1.15 -1.05 c1.45 -1.35 2.35 -1.30 3.50 0.25 0.90 1.25 0.90 1.30 -0.25 2.50 -1.45 1.55 -2.05 1.50 -3.35 -0.25z"/>
  <path d="M57 58.25 l-1.20 -1.30 1.35 -1.30 1.30 -1.35 1.30 1.20 c1.50 1.40 1.55 2.05 0.35 3.15 -1.25 1.15 -1.70 1.05 -3.10 -0.40z"/>
  <path d="M164.10 58.55 c-1.40 -1.20 -1.40 -1.60 0.15 -3.05 l1.30 -1.20 1.30 1.35 1.35 1.30 -1.20 1.30 c-1.40 1.50 -1.55 1.50 -2.90 0.30z"/>
  <path d="M62.85 53.20 c-1.10 -1.50 -0.90 -2.25 0.80 -3.15 1.20 -0.65 1.40 -0.60 2.30 0.50 1.35 1.60 1.30 2.15 -0.20 3.15 -1.60 1.05 -1.85 1 -2.90 -0.50z"/>
  <path d="M158.05 53.30 c-1.15 -1.20 -1.15 -1.25 -0.25 -2.50 1.10 -1.50 2.25 -1.65 3.35 -0.40 1.05 1.15 1.05 1.60 -0.10 3 -1.20 1.40 -1.60 1.40 -3 -0.10z"/>
  <path d="M69.40 48.75 c-1.20 -1.60 -1.15 -2.10 0.35 -3.05 1.40 -0.90 2.75 -0.65 2.75 0.55 0 0.40 0.25 0.75 0.50 0.75 0.95 0 0.50 1.40 -0.75 2.20 -1.60 1.05 -1.85 1 -2.85 -0.45z"/>
  <path d="M151.65 48.90 c-1.40 -0.65 -1.40 -1.25 -0.20 -2.90 0.85 -1.05 1.10 -1.15 2.25 -0.60 1.45 0.65 2.30 2.20 1.40 2.50 -0.35 0.10 -0.60 0.50 -0.60 0.90 0 0.80 -1.25 0.85 -2.85 0.10z"/>
  <path d="M76.30 45.60 c-0.15 -0.25 -0.50 -1.05 -0.75 -1.75 -0.45 -1.20 -0.35 -1.40 0.95 -2.10 2 -1 2.15 -1 2.95 0.80 0.55 1.30 0.55 1.65 0 2.20 -0.95 0.90 -2.80 1.40 -3.15 0.85z"/>
  <path d="M145.15 45.25 c-1.65 -0.75 -1.75 -1.60 -0.35 -3.45 0.65 -0.95 0.80 -0.95 2.45 -0.15 l1.75 0.85 -0.85 1.75 c-0.95 1.95 -0.80 1.90 -3 1z"/>
  <path d="M83.60 42.35 c-0.30 -0.35 -0.65 -1.20 -0.85 -1.95 -0.30 -1.20 -0.15 -1.45 1 -1.90 2.10 -0.80 2.60 -0.60 3.20 1.10 0.60 1.70 0.50 1.90 -1.55 2.80 -1 0.40 -1.45 0.40 -1.80 -0.05z"/>
  <path d="M138.25 42.35 c-0.80 -0.30 -1.60 -0.60 -1.70 -0.70 -0.10 -0.10 0.10 -1 0.45 -2.10 0.60 -1.90 0.65 -1.95 2.20 -1.45 2.25 0.80 2.40 1.05 1.55 3.05 -0.40 1 -0.80 1.85 -0.90 1.80 -0.05 -0.05 -0.75 -0.30 -1.60 -0.60z"/>
  <path d="M90.30 38.40 c-0.45 -0.85 -0.80 -1.60 -0.80 -1.70 0 -0.25 3.20 -1.20 4.05 -1.20 0.75 0 0.95 0.40 0.95 1.95 0 1.30 -0.25 2.05 -0.80 2.25 -1.65 0.65 -2.65 0.25 -3.40 -1.30z"/>
  <path d="M129.55 39.55 c-0.95 -0.65 0.20 -4.05 1.40 -4.05 1.60 0 2.65 1.20 2.45 2.75 -0.10 1.25 -0.40 1.50 -1.65 1.65 -0.80 0.05 -1.80 -0.10 -2.20 -0.35z"/>
  <path d="M98.30 37.95 c-0.10 -0.40 -0.35 -1.30 -0.50 -2.05 -0.30 -1.30 -0.20 -1.40 1.15 -1.40 0.80 0 1.80 -0.10 2.20 -0.30 0.50 -0.20 0.80 0.25 1 1.60 0.20 1.05 0.25 1.95 0.20 2 -0.05 0.05 -0.95 0.25 -1.95 0.45 -1.40 0.25 -1.95 0.20 -2.10 -0.30z"/>
  <path d="M122.65 38.15 c-1.20 -0.20 -1.40 -1 -0.85 -3.05 0.30 -1 0.55 -1.10 2.15 -0.80 1 0.20 1.85 0.40 1.95 0.45 0.10 0.10 0 0.95 -0.15 1.95 -0.35 1.85 -0.60 1.95 -3.10 1.45z"/>
  <path d="M106 35.50 c0 -2 0 -2 1.95 -2 1.75 0 1.95 0.15 2.25 1.55 0.40 2.10 0.10 2.45 -2.25 2.45 -1.95 0 -1.95 0 -1.95 -2z"/>
  <path d="M113.85 37.20 c-0.20 -0.20 -0.35 -1.10 -0.35 -2.05 0 -1.65 0.05 -1.65 2.30 -1.65 l2.25 0 -0.15 1.90 c-0.15 1.75 -0.25 1.85 -1.90 2 -1 0.10 -1.95 0 -2.15 -0.20z"/>
 </g>
</svg>